<svg width="51" height="51" viewBox="0 0 51 51" fill="none" xmlns="http://www.w3.org/2000/svg">
<g id="&#240;&#159;&#166;&#134; icon &#34;3d square&#34;">
<g id="Group">
<path id="Vector" d="M18.622 49.4914H32.8694C44.7422 49.4914 49.4914 44.7422 49.4914 32.8694V18.622C49.4914 6.74914 44.7422 2 32.8694 2H18.622C6.74914 2 2 6.74914 2 18.622V32.8694C2 44.7422 6.74914 49.4914 18.622 49.4914Z" stroke="#999999" stroke-width="3" stroke-linecap="round" stroke-linejoin="round"/>
<path id="Vector_2" d="M13.1603 19.2394L25.7454 26.5293L38.2357 19.2869" stroke="#999999" stroke-width="3" stroke-linecap="round" stroke-linejoin="round"/>
<path id="Vector_3" d="M25.7457 39.4472V26.5058" stroke="#999999" stroke-width="3" stroke-linecap="round" stroke-linejoin="round"/>
<path id="Vector_4" d="M22.8013 12.1868L15.2026 16.4136C13.4929 17.3634 12.0682 19.7617 12.0682 21.7327V29.7825C12.0682 31.7533 13.4692 34.1517 15.2026 35.1015L22.8013 39.3282C24.416 40.2306 27.0755 40.2306 28.7139 39.3282L36.3126 35.1015C38.0222 34.1517 39.447 31.7533 39.447 29.7825V21.7089C39.447 19.738 38.046 17.3397 36.3126 16.3898L28.7139 12.1631C27.0755 11.2608 24.416 11.2608 22.8013 12.1868Z" stroke="#999999" stroke-width="3" stroke-linecap="round" stroke-linejoin="round"/>
</g>
</g>
</svg>
